<?xml version="1.0" standalone="no"?>
<!DOCTYPE svg PUBLIC "-//W3C//DTD SVG 20010904//EN"
 "http://www.w3.org/TR/2001/REC-SVG-20010904/DTD/svg10.dtd">
<svg version="1.0" xmlns="http://www.w3.org/2000/svg"
 width="198.000000pt" height="198.000000pt" viewBox="0 0 198.000000 198.000000"
 preserveAspectRatio="xMidYMid meet">
<metadata>
Created by potrace 1.11, written by Peter Selinger 2001-2013
</metadata>
<g transform="translate(0.000000,198.000000) scale(0.100000,-0.100000)"
fill="#000000" stroke="none">
<path d="M860 1934 c-96 -26 -161 -65 -245 -149 -44 -44 -93 -104 -109 -134
-17 -31 -68 -93 -121 -145 -105 -104 -162 -188 -205 -299 -103 -266 -74 -555
79 -790 159 -243 427 -387 720 -387 603 0 1018 606 800 1170 -50 129 -154 272
-264 361 -17 13 -48 53 -70 89 -51 85 -174 207 -246 243 -114 57 -228 71 -339
41z m-32 -534 c47 -75 144 -168 230 -221 61 -38 70 -47 65 -66 -10 -41 5 -73
32 -73 22 0 35 15 50 57 0 1 32 -7 70 -18 38 -10 80 -19 94 -19 23 0 24 -2 18
-52 -13 -126 -91 -250 -228 -365 -101 -84 -117 -93 -164 -93 -54 0 -99 23
-186 96 -187 156 -249 280 -249 499 0 87 4 119 20 152 29 66 78 133 134 186
l50 47 15 -37 c8 -21 30 -63 49 -93z m-409 45 c-45 -164 -45 -365 1 -640 25
-147 35 -308 26 -398 -7 -58 -11 -69 -36 -87 l-29 -20 -57 72 c-117 150 -176
317 -176 508 -2 230 72 418 225 577 33 35 61 62 63 60 1 -1 -6 -34 -17 -72z
m1162 18 c117 -128 193 -283 219 -446 15 -93 8 -256 -15 -342 -23 -84 -96
-230 -149 -297 l-45 -57 -40 22 c-34 19 -40 27 -45 66 -11 77 -6 162 14 301
45 293 52 373 47 505 -4 117 -22 217 -52 288 -14 33 13 17 66 -40z m-624
-1023 c55 0 59 2 103 48 l45 47 5 -60 5 -60 70 -8 c39 -5 74 -12 79 -17 4 -4
-10 -20 -32 -35 -51 -34 -220 -107 -247 -107 -28 -1 -183 67 -242 105 l-48 30
35 9 c19 5 52 14 73 19 l37 10 0 56 0 57 30 -47 30 -47 57 0z"/>
<path d="M724 1311 c-37 -22 -64 -58 -64 -83 0 -23 3 -23 52 9 31 21 52 27 85
26 34 -1 45 3 54 19 6 11 8 26 5 34 -8 21 -94 18 -132 -5z"/>
<path d="M744 1116 c-11 -45 -1 -71 28 -74 36 -4 57 35 40 73 -16 34 -59 35
-68 1z"/>
<path d="M1000 910 c-13 -23 -48 -27 -56 -5 -4 8 -15 15 -25 15 -27 0 -24 -35
3 -54 52 -37 131 -2 112 49 -8 21 -21 19 -34 -5z"/>
<path d="M1057 804 c-3 -3 -50 -7 -104 -8 l-98 -1 3 -45 c2 -35 10 -51 34 -74
28 -26 36 -28 91 -24 52 4 64 9 88 36 23 25 29 42 29 77 0 37 -3 45 -18 45
-10 0 -21 -3 -25 -6z m1 -71 c-24 -51 -122 -62 -155 -16 -27 36 -16 42 75 45
48 2 89 2 90 1 2 -1 -2 -14 -10 -30z"/>
<path d="M950 621 c0 -5 7 -14 15 -21 12 -10 18 -10 30 0 23 19 18 30 -15 30
-16 0 -30 -4 -30 -9z"/>
</g>
</svg>
