<?xml version="1.0" encoding="UTF-8" standalone="no"?>
<svg width="534px" height="113px" viewBox="0 0 534 113" version="1.1" xmlns="http://www.w3.org/2000/svg" xmlns:xlink="http://www.w3.org/1999/xlink" xmlns:sketch="http://www.bohemiancoding.com/sketch/ns">
    <!-- Generator: Sketch 3.0.1 (7597) - http://www.bohemiancoding.com/sketch -->
    <title>Signature</title>
    <description>Created with Sketch.</description>
    <defs></defs>
    <g id="Welcome" stroke="none" stroke-width="1" fill="none" fill-rule="evenodd" sketch:type="MSPage">
        <g id="Signature" sketch:type="MSArtboardGroup" fill="#FFFFFF">
            <g id="Imported-Layers-2" sketch:type="MSLayerGroup">
                <path d="M413.676372,88.4382575 C412.055941,86.4292137 410.244382,84.5691924 408.388503,82.7671243 C407.130938,81.5445881 405.999406,81.8660903 404.528552,83.2003934 C400.901279,86.495446 397.257386,89.8870872 393.192458,92.5543136 C388.451657,95.6630881 383.133318,97.0801815 377.554602,95.995629 C375.799827,95.6534292 374.542261,94.8655418 373.891319,93.2262946 C372.556194,89.8650098 371.122736,86.5423604 369.91226,83.1286418 C367.912343,77.4823457 364.361243,73.0861826 359.594128,69.6531462 C356.32418,67.2977632 353.665011,67.2825849 350.572341,70.2423369 C347.63479,73.048927 345.190293,76.3688166 342.550514,79.4803508 C342.014525,80.1095568 341.56302,80.8105144 341.072735,81.4755962 C340.740339,80.7153056 340.732029,80.1619906 340.856678,79.6335128 C345.269237,60.8649595 347.65972,41.9308257 349.870155,22.962196 C350.350744,18.8406206 349.317546,15.9388217 346.529573,13.4551138 C345.560084,12.5913353 344.60583,11.6958206 343.540777,10.9534679 C342.920304,10.518819 342.099009,10.3546183 341.191844,10 C339.869184,15.8284347 338.701643,21.2953519 337.383138,26.7346724 C333.563352,42.4758616 329.516428,58.1839347 323.605316,73.4339017 C321.878241,77.896297 319.259236,82.1227401 316.651311,86.2263776 C316.244125,86.8680022 315.701212,87.4323558 315.089049,87.9691127 C315.090434,88.0284457 315.084894,88.0877787 315.086279,88.1484916 C313.158381,89.8663896 311.597504,92.1389824 308.970189,92.8261416 C307.143395,93.3035655 306.781914,91.4904587 306.813769,90.0568072 C306.960577,83.2183313 309.211176,74.0548287 302.967668,68.9052741 C301.703177,67.6082266 300.696294,66.1276607 299.519057,64.7657609 C296.20479,60.911874 292.721555,57.2083894 288.081858,54.5011477 C284.565384,52.4520886 281.134778,52.3030662 278.332955,54.5687598 C276.056041,56.4108432 273.949481,58.5647699 272.413533,60.9463699 C269.822228,64.9547986 268.226726,69.3109464 267.181063,73.8450933 C265.614646,77.581694 263.465151,84.0448541 263.190924,84.7057964 C262.923622,83.4860198 262.630005,82.2759021 262.314229,81.0726835 C261.197932,76.8186437 259.807408,72.6584329 258.32686,68.4954623 C256.408657,63.1044362 252.883872,58.9152487 248.30927,55.6312349 C244.745706,53.0743955 241.896793,53.6097725 239.057576,57.3077377 C238.165646,58.470941 237.268176,59.7072756 236.732188,61.0332997 C235.099291,65.0720848 233.548109,69.1453659 232.13958,73.2572825 C231.251805,75.8444783 230.682577,78.5186038 229.970695,81.1554738 C229.049681,77.0987508 228.411203,73.0861826 228.278245,69.0198007 C228.114816,63.8329905 225.771423,60.043956 222.109525,56.8496316 C218.208025,53.444192 217.116658,53.7049813 214.926998,58.8076214 C214.449178,59.9239101 213.913189,61.0470981 213.644502,62.204782 C211.69583,70.6204125 209.802557,79.0457019 207.903743,87.4682316 C207.499328,89.2606408 207.251416,91.0903057 206.712657,92.848219 C206.385801,93.9079344 205.636524,94.864162 205.075606,95.8686839 C204.852623,95.8328081 204.628256,95.7983122 204.403889,95.7624364 C204.006398,94.302568 203.498109,92.8702964 203.228037,91.3759321 C201.69209,82.8664726 200.149217,74.3570132 198.740688,65.8144376 C198.077281,61.788071 196.195088,58.6144441 193.303241,55.9196209 C188.400397,51.3537378 186.807665,51.4862022 184.115256,58.0694082 C180.692961,66.4408839 177.889753,75.0276143 174.853868,83.5315544 C174.22647,85.2880879 173.74588,87.0873964 173.198812,88.8673871 C172.554794,87.9208184 172.406601,87.0239238 172.348431,86.1132309 C171.975871,80.3151526 171.396947,74.5336324 171.329083,68.7079573 C171.266759,63.2796756 168.831957,59.4078508 164.984471,56.1804103 C161.329498,53.1157906 159.992988,53.4221146 158.857301,58.258446 C157.321354,64.8030165 156.199517,71.4179587 154.971036,78.006684 C154.072181,82.8388759 152.886635,87.5882775 149.896454,91.7388295 C148.93112,93.0800318 147.496276,94.1038714 146.27749,95.2739738 C146.025423,95.1539279 145.773356,95.0325022 145.521289,94.9110765 C145.02962,91.8519762 144.449311,88.8052944 144.10168,85.7172175 C144.001962,84.8313616 145.456195,66.9321061 138.335992,62.5525011 C137.031336,61.4969252 135.941354,60.188839 134.711488,59.0435736 C131.233793,55.8023347 127.618984,52.7570328 123.020837,51.0322356 C119.537602,49.7282889 116.324439,50.3933707 113.939496,53.4345331 C111.999134,55.9072024 110.251284,58.6654981 109.054657,61.5245219 C105.813795,69.2681715 105.060363,77.3360829 105.000809,85.4398701 C104.9371,94.0873133 108.639162,100.699496 115.100113,105.813175 C119.108257,108.985422 122.178767,108.902631 126.445903,105.437859 C130.61886,102.053117 133.424838,97.6610931 135.89288,93.0317375 C136.29314,92.2797259 136.6934,91.530474 137.251549,90.4845569 C137.611645,91.1523984 137.818007,91.4601022 137.955121,91.7995423 C139.815155,96.4344174 143.024163,99.9916391 146.888268,102.973469 C150.6762,105.897345 154.576315,105.408882 157.699454,101.313524 C159.455614,99.0119543 160.740879,96.3060925 161.894571,93.656804 C162.826666,91.5166756 163.246316,89.1861296 164.080076,86.2953695 C164.596675,89.0605644 164.987241,91.1868944 165.391656,93.307705 C166.535653,99.2906815 169.996728,103.63993 174.799853,106.992936 C176.967353,108.505238 178.019941,108.167178 179.260887,105.639315 C179.902135,104.333989 180.384109,102.950011 180.825919,101.572933 C183.852109,92.1445018 186.83952,82.7091711 189.869865,73.2807397 C190.218881,72.189288 190.74933,71.143371 191.195295,70.0767564 C191.885017,70.9557131 192.03321,71.7629182 192.195254,72.5673636 C193.264461,77.9059559 194.135616,83.3052611 195.454121,88.5665824 C197.123027,95.2174005 201.193495,100.245529 206.737587,104.031804 C211.044887,106.973618 214.191571,105.829733 215.681814,100.568411 C216.703932,96.9573759 217.028019,93.1986978 217.749595,89.5159108 C218.526571,85.5447377 219.401881,81.5859832 220.234257,77.6189496 C220.939214,78.3433645 221.052782,79.0884768 221.189896,79.8211707 C222.178775,85.1804606 222.9973,90.5880448 224.210546,95.8783428 C225.463957,101.332841 228.991511,105.269519 233.359751,108.455564 C235.870727,110.286609 236.867916,109.773309 237.192002,106.519652 C237.622732,102.173163 237.725221,97.8101156 238.341539,93.4788049 C239.527086,85.1625227 241.693201,77.0173404 245.540687,69.3109464 C246.548955,67.2950035 248.118142,65.5232918 249.429722,63.6398132 C249.684559,63.7212237 249.939396,63.8012543 250.191463,63.8826647 C250.48508,64.6429553 250.86318,65.377029 251.058463,66.1649163 C252.719059,72.9495786 254.583248,79.6831869 255.897598,86.5561588 C257.4654,94.7468758 263.667359,99.6204628 268.096538,95.2394779 C269.571546,98.1992299 271.669797,101.009959 274.320656,103.685465 C278.199997,107.602824 281.422855,108.259627 286.235675,106.050507 C290.941851,103.891061 294.317057,100.464923 297.364022,96.7379817 C297.857076,96.1349926 298.355671,95.5320035 299.041238,94.6889226 C299.352859,95.3967794 299.537062,95.7348396 299.646476,96.0853184 C300.696294,99.4507427 300.283568,104.869366 303.826358,106.845293 C307.640604,108.971623 312.274761,106.340273 315.321726,104.024905 C316.850748,102.863082 318.354841,101.670902 319.822924,100.434567 C320.921217,99.5100758 322.094298,98.5842046 323.092872,97.5189699 C323.470972,97.1146774 323.790904,96.684168 324.080365,96.2426199 C324.373982,95.9404355 324.670369,95.6272123 324.977835,95.2822528 C325.592768,94.5909541 326.192466,93.8899965 327.289374,92.6329643 C327.137025,94.1673439 327.17165,94.9441926 326.966672,95.6686074 C325.797746,99.8136401 326.966672,103.118352 329.905609,105.818694 C330.972046,106.803898 331.98724,107.858094 333.139547,108.734291 C335.518949,110.547398 336.383179,110.511522 338.243213,107.9809 C340.564446,104.826591 342.616993,101.483244 344.776183,98.2144081 C348.017046,93.3132244 351.095865,88.3016536 354.551401,83.543973 C356.224462,81.2341246 358.587245,79.3892815 360.999887,76.9718057 C361.574655,78.2315976 361.839187,78.6910836 362.002615,79.189205 C364.444342,86.6444684 368.196264,93.240093 373.798525,98.6876924 C378.881417,103.628891 384.694195,106.623139 392.382242,105.017008 C401.25168,103.163886 407.711246,97.3975441 413.680527,90.9357639 C414.116797,90.4610997 414.097408,88.9598362 413.676372,88.4382575 L413.676372,88.4382575 Z M133.956401,64.7465262 C132.272492,75.024904 128.706814,84.6932565 121.814012,93.1140796 C120.010826,95.3178649 117.587399,97.0503919 115.447431,99 C115.159763,98.8158932 114.873499,98.6317865 114.585831,98.4463058 C114.444102,97.7016352 114.226597,96.9665821 114.17608,96.2081722 C113.562856,87.2872382 114.48199,78.4267572 118.032232,69.8534278 C119.203952,67.021756 121.052043,64.2601547 123.147107,61.9368373 C125.839958,58.9485374 131.600331,59.5723021 133.642071,62.7502045 C133.976047,63.2709243 134.064452,64.0911611 133.956401,64.7465262 L133.956401,64.7465262 Z M297.882924,69.1276381 C295.076593,78.4091721 290.366667,86.6705285 282.305124,92.9664816 C280.19547,94.6154217 277.483057,95.6716872 275.049595,97 C274.76784,96.7584886 274.486086,96.5183651 274.20293,96.2726897 C274.132841,95.5384395 273.978647,94.7944732 274.002477,94.068551 C274.267411,85.5198792 276.126149,77.3903825 280.709917,70.1575317 C282.22242,67.7687893 284.435805,65.6076784 286.862258,63.9143225 C289.981182,61.7379436 295.941481,63.695019 297.755364,67.1719507 C298.051136,67.7424174 298.059546,68.5349635 297.882924,69.1276381 L297.882924,69.1276381 Z" id="Fill-1" sketch:type="MSShapeGroup"></path>
                <path d="M114,76.3540966 C106.948579,76.5890264 100.123549,76.8142826 92.6165705,77.0644138 C94.7513023,87.2506942 96.7457557,96.7833169 98.7429869,106.31594 C98.530486,106.54396 98.3193739,106.773362 98.1082619,107 C96.808256,106.011913 95.4138053,105.138527 94.2235222,104.016391 C84.3387555,94.6952054 73.0289824,87.7744495 60.2233693,83.3536231 C58.9789192,82.9252217 57.6872468,82.6101393 55.8094605,82.0670369 C56.42613,87.4980614 54.8358451,92.9677803 57.7150247,97.2283016 C58.2039158,97.9510563 58.770585,98.8659006 58.7136403,99.7489603 C58.6289177,101.108789 58.0344706,102.51975 57.6566911,103.907218 C56.6941867,103.554823 55.5427927,103.447032 54.7983449,102.808576 C49.9136007,98.6240611 47.5927569,92.7646351 47.7788689,85.4845747 C47.8441469,82.9901729 46.8566425,82.6253407 44.8469112,82.9970826 C42.0399542,83.516692 39.221886,83.5830252 36.42604,84.2145718 C31.0843494,85.4237694 27.406555,83.3591509 24.877377,79.0226229 C23.8870948,77.3242185 23.3134811,75.3010582 22.5509777,73.4243836 C24.4954308,72.5219767 26.4815509,70.9963148 28.3732261,70.8332459 C33.6926944,70.3772057 38.9760515,70.4642679 44.2691309,70.3868792 C45.220524,70.370296 46.1427504,70.5900244 47.4649786,70.7475656 C47.6941463,61.8851838 47.9135917,53.3655232 48.1330371,44.8444806 C47.9455363,44.789203 47.7552577,44.7353073 47.5663679,44.6814116 C46.9774764,45.4470064 46.3705292,46.2015457 45.7996933,46.9837238 C41.9038425,52.3221584 37.6746568,57.2819414 32.4635222,61.1112974 C25.1204337,66.5077734 19.1301289,66.5989815 13.3370473,61.1817763 C4.36617366,52.7906361 -0.44773688,41.8290873 0.0328208366,27.6973679 C0.0633765296,26.8336554 0.218932785,25.9492137 0.37726683,24.5161418 C1.44393829,25.0620082 2.25644195,25.296938 2.85088906,25.8124016 C6.67451737,29.1332037 9.79258695,33.3674681 9.18980646,39.2545329 C8.77036013,43.3658047 9.26202901,46.8773144 10.0634215,50.4979975 C10.7092577,53.4166549 12.5592661,54.500096 15.2690005,54.5304987 C18.6134599,54.5650472 21.7593074,53.3157733 24.5829312,51.0106972 C37.1427099,40.7580837 45.7871933,27.6987499 50.3247137,11.87139 C51.2691624,8.57684483 51.7163866,5.19523742 52.4302787,1.85647017 C52.6344463,0.907077325 52.9733367,-0.0340238769 53.2566713,-1 C58.1900268,0.37226651 62.4178236,7.31651546 61.0497619,12.5278115 C56.1914067,31.0388991 56.8775209,49.1450781 56.2150179,67.3590485 C56.1705733,68.569628 56.0400171,69.7083467 57.6997468,69.516257 C66.1150624,68.546135 74.5303781,67.6451101 82.9456937,66.7081547 C83.2512506,66.6722243 83.563752,66.5077734 83.4012513,66.5616691 C82.199857,47.3568476 81.0067961,28.3026577 79.7776239,8.68463615 C80.9609625,8.99419073 81.4817982,8.97760745 81.7942996,9.23879413 C86.3651535,13.0847334 89.0859991,17.9007946 89.2151663,25.0716817 C89.4526674,38.2291333 90.4387829,51.2442451 91.2387865,64.2856137 C91.2846201,65.041535 92.4040696,66.0614068 93.1360173,66.0448235 C97.4235366,65.941178 101.747167,65.5652903 106.056909,65.29443 C106.29441,65.2792287 106.530522,65.3566173 106.752745,65.4270963 C109.213867,66.1761078 113.774999,72.7831634 114,76.3540966 L114,76.3540966 Z M89,93 C88.0145031,88.3158605 87.0683718,83.6838126 86.0245053,79.0901481 C85.9091234,78.5801979 85.2494106,77.9633226 84.7960277,78.001706 C80.0490819,78.3841686 75.2926341,78.8886355 70,79.4164066 C76.6541402,84.1704586 82.7734515,88.5475314 89,93 L89,93 Z" id="Fill-2" sketch:type="MSShapeGroup"></path>
                <path d="M429.861118,11 C433.002885,11.3216962 434.403066,14.1234773 436.564845,15.9106782 C448.287384,25.597307 464.540813,29.7766076 478.064374,36.4634885 C488.518042,41.6326234 498.494847,47.7214794 507.928443,54.5568355 C516.043409,60.4367264 523.116187,67.3435705 528.495755,75.8520216 C534.164206,84.8210205 533.06673,91.3003112 524.391968,97.4015401 C516.589382,102.893746 507.546952,105.762891 498.272311,107.225646 C488.950674,108.69665 479.457643,109.113205 470.033723,109.872078 C463.429515,110.405489 456.445198,109.062339 449.626747,109.62187 C445.739968,109.942191 442.963104,108.583919 440.780592,105.668032 C439.015507,103.311676 437.423199,100.823342 435.753487,98.3996231 C435.951143,98.0614297 436.151564,97.724611 436.350603,97.3905419 C441.61683,97.3176791 446.877528,97.2420668 452.355234,97.1623301 C451.669656,86.3263936 451.136123,75.7640363 450.294356,65.219551 C449.444295,54.5760822 448.348201,43.9394873 447.170557,33.3207645 C447.025425,32.0339798 445.947299,30.4901132 444.840148,29.7339897 C439.62368,26.1705861 435.09279,21.9582911 431.593029,16.7217924 C430.550842,15.1669276 429.855589,13.383851 429,11.7066317 C429.286118,11.4701713 429.575,11.2323361 429.861118,11 L429.861118,11 Z M457.110377,36 C457.061807,36.8285048 456.964668,37.3899709 457.013237,37.9404815 C458.622973,56.9139262 460.268789,75.8860014 461.831343,94.862185 C461.982603,96.7574753 462.972035,97.0683358 464.523488,96.9889089 C468.238369,96.7848639 471.96019,96.6931121 475.670908,96.3890988 C489.078898,95.2853387 501.991477,92.368454 513.835525,85.7691736 C517.152136,83.9149662 519.855382,81.452732 521.299982,77.864827 C522.623851,74.5768269 522.104849,72.178956 519.444622,69.7988876 C517.922312,68.4363054 516.351431,67.124392 514.716717,65.9014915 C497.307979,52.891912 477.662263,44.0385507 457.110377,36 L457.110377,36 Z" id="Fill-3" sketch:type="MSShapeGroup"></path>
            </g>
        </g>
    </g>
</svg>